<svg width="179" height="179" viewBox="0 0 179 179" fill="none" xmlns="http://www.w3.org/2000/svg">
<g clip-path="url(#clip0_0:1)">
<path d="M89.5498 155.1C126.304 155.1 156.1 125.304 156.1 88.5498C156.1 51.7954 126.304 22 89.5498 22C52.7954 22 23 51.7954 23 88.5498C23 125.304 52.7954 155.1 89.5498 155.1Z" fill="#FEFEFE"/>
<path d="M62.391 56.2714H58.8643V120.791H62.391V56.2714Z" fill="#0077BD"/>
<path d="M81.6529 117.842H58.8643V120.763H81.6529V117.842Z" fill="#0077BD"/>
<path d="M120.162 56.2714H116.636V120.791H120.162V56.2714Z" fill="#0077BD"/>
<path d="M120.179 117.842H87.6528V120.763H120.179V117.842Z" fill="#0077BD"/>
<path d="M120.179 56.2714H87.6528V59.192H120.179V56.2714Z" fill="#0077BD"/>
<path d="M79.0269 69.7234H72.8208V107.618H79.0269V69.7234Z" fill="#3E4095"/>
<path d="M88.7406 102.597H72.8208V107.614H88.7406V102.597Z" fill="#3E4095"/>
<path d="M106.211 69.7234H100.005V107.618H106.211V69.7234Z" fill="#0077BD"/>
<path d="M106.271 69.7234H90.3516V74.7408H106.271V69.7234Z" fill="#0077BD"/>
</g>
<circle cx="89.5" cy="89.5" r="88.25" stroke="#FDFDFF" stroke-width="2.5"/>
<defs>
<clipPath id="clip0_0:1">
<rect width="133" height="133" fill="white" transform="translate(23 22)"/>
</clipPath>
</defs>
</svg>
