<svg width="1600" height="1171" viewBox="0 0 1600 1171" fill="none" xmlns="http://www.w3.org/2000/svg">
<g clip-path="url(#clip0_223_894)">
<rect width="1600" height="1171" fill="#F9FAFF"/>
<path opacity="0.06" d="M1431.28 -71.309C1466.55 -67.0618 1502.27 -55.2368 1536.83 -60.0287C1577.03 -65.5574 1610.87 -93.0676 1651.87 -93.3384C1690.64 -93.4692 1728.01 -67.2466 1746.68 -33.8604C1765.24 -0.331109 1767.23 38.861 1759.94 74.5305C1759.49 76.9935 1758.86 79.1125 1758.47 81.1888C1758.3 82.3488 1758.02 83.6519 1757.51 84.9975C1756.98 86.9734 1756.54 88.8062 1755.87 90.6816C1742.65 139.062 1748.05 194.101 1753.51 219.504C1754 221.553 1754.44 223.359 1754.92 225.408C1762.36 257.746 1764.07 290.335 1756.63 321.636C1743.2 378.839 1693.16 429.143 1630.25 430.486C1580.6 431.518 1533.43 403.118 1494.69 371.236C1455.95 339.354 1420.78 302.076 1376.31 278.35C1347.62 262.912 1316.15 253.857 1286.07 241.295C1256 228.734 1226.41 211.818 1207.91 185.809C1183.73 151.756 1183.51 107.61 1195.5 70.1141C1225.18 -21.815 1328.08 -83.5026 1431.28 -71.309Z" fill="#1E90FF"/>
<path opacity="0.4" d="M1350.49 1.19642L1352.49 2.60302L1353.9 0.59971C1354.2 0.170433 1354.69 0.0851868 1355.12 0.386595C1355.54 0.688003 1355.63 1.17513 1355.33 1.6044L1353.92 3.60771L1355.93 5.01427C1356.36 5.31568 1356.44 5.8028 1356.14 6.23208C1355.84 6.66136 1355.35 6.7466 1354.92 6.4452L1352.92 5.03863L1351.51 7.04192C1351.21 7.47119 1350.73 7.55644 1350.3 7.25503C1349.87 6.95362 1349.78 6.4665 1350.08 6.03722L1351.49 4.03394L1349.48 2.62734C1349.05 2.32594 1348.97 1.83881 1349.27 1.40954C1349.57 0.980259 1350.06 0.895014 1350.49 1.19642Z" fill="#0C56BC"/>
<path opacity="0.4" d="M1242.75 53.9386L1244.75 55.3451L1246.16 53.3419C1246.46 52.9126 1246.95 52.8274 1247.38 53.1288C1247.81 53.4302 1247.89 53.9173 1247.59 54.3466L1246.19 56.3498L1248.19 57.7564C1248.62 58.0578 1248.71 58.545 1248.41 58.9742C1248.1 59.4035 1247.62 59.4887 1247.19 59.1873L1245.18 57.7808L1243.78 59.7841C1243.48 60.2133 1242.99 60.2986 1242.56 59.9972C1242.13 59.6957 1242.04 59.2086 1242.35 58.7794L1243.75 56.7761L1241.75 55.3695C1241.32 55.0681 1241.23 54.581 1241.53 54.1517C1241.83 53.7224 1242.32 53.6372 1242.75 53.9386Z" fill="#0C56BC"/>
<path opacity="0.4" d="M1497.23 343.552L1499.24 344.958L1500.64 342.955C1500.94 342.526 1501.43 342.441 1501.86 342.742C1502.29 343.043 1502.38 343.531 1502.07 343.96L1500.67 345.963L1502.67 347.37C1503.1 347.671 1503.19 348.158 1502.89 348.587C1502.59 349.017 1502.1 349.102 1501.67 348.801L1499.66 347.394L1498.26 349.397C1497.96 349.827 1497.47 349.912 1497.04 349.61C1496.61 349.309 1496.53 348.822 1496.83 348.393L1498.23 346.389L1496.23 344.983C1495.8 344.681 1495.71 344.194 1496.01 343.765C1496.32 343.336 1496.8 343.25 1497.23 343.552Z" fill="#0C56BC"/>
<g opacity="0.5">
<path opacity="0.5" d="M1593.53 -5.93363C1596.25 -4.02473 1593.34 0.124951 1590.62 -1.78396C1587.9 -3.69287 1590.81 -7.84254 1593.53 -5.93363Z" fill="#F1AB00"/>
<path opacity="0.5" d="M1444.11 1.75875C1446.83 3.66766 1443.92 7.81732 1441.2 5.90841C1438.38 4.14259 1441.39 -0.150161 1444.11 1.75875Z" fill="#F1AB00"/>
<path opacity="0.5" d="M1330.88 75.4208C1333.6 77.3298 1330.69 81.4794 1327.97 79.5705C1325.25 77.6616 1328.16 73.5119 1330.88 75.4208Z" fill="#F1AB00"/>
<path opacity="0.5" d="M1257.52 139.471C1260.24 141.38 1257.33 145.529 1254.61 143.62C1251.79 141.854 1254.8 137.562 1257.52 139.471Z" fill="#F1AB00"/>
<path opacity="0.5" d="M1575.86 420.295C1578.58 422.204 1575.67 426.353 1572.95 424.445C1570.13 422.679 1573.14 418.386 1575.86 420.295Z" fill="#F1AB00"/>
</g>
<path opacity="0.4" d="M1392.83 326.673L1394.84 328.08L1396.24 326.076C1396.55 325.647 1397.03 325.562 1397.46 325.863C1397.89 326.165 1397.98 326.652 1397.68 327.081L1396.27 329.084L1398.28 330.491C1398.7 330.792 1398.79 331.279 1398.49 331.709C1398.19 332.138 1397.7 332.223 1397.27 331.922L1395.27 330.515L1393.86 332.518C1393.56 332.948 1393.07 333.033 1392.64 332.732C1392.21 332.43 1392.13 331.943 1392.43 331.514L1393.83 329.51L1391.83 328.104C1391.4 327.802 1391.32 327.315 1391.62 326.886C1391.82 326.6 1392.4 326.372 1392.83 326.673Z" fill="#B3B3B3"/>
<path opacity="0.4" d="M1183.17 117.837L1185.17 119.244L1186.58 117.24C1186.88 116.811 1187.37 116.726 1187.8 117.027C1188.23 117.329 1188.31 117.816 1188.01 118.245L1186.61 120.248L1188.61 121.655C1189.04 121.956 1189.12 122.443 1188.82 122.873C1188.52 123.302 1188.04 123.387 1187.61 123.086L1185.6 121.679L1184.2 123.683C1183.89 124.112 1183.41 124.197 1182.98 123.896C1182.55 123.594 1182.46 123.107 1182.76 122.678L1184.17 120.675L1182.16 119.268C1181.74 118.967 1181.65 118.479 1181.95 118.05C1182.15 117.764 1182.74 117.536 1183.17 117.837Z" fill="#B3B3B3"/>
<path opacity="0.4" d="M1305.68 237.112C1308.4 239.021 1305.48 243.171 1302.76 241.262C1300.04 239.353 1302.95 235.203 1305.68 237.112Z" fill="#B3B3B3"/>
<g clip-path="url(#clip1_223_894)">
<path fill-rule="evenodd" clip-rule="evenodd" d="M102.171 573.422C102.171 574.669 103.497 575.916 104.293 576.415C106.68 578.161 110.129 578.161 113.047 578.66C118.352 579.408 115.434 582.65 116.761 585.393C117.291 586.89 119.148 586.141 119.678 584.645C119.944 584.146 120.209 583.647 120.474 582.899C120.74 582.151 121.005 581.652 121.27 580.904C121.27 580.156 121.535 579.657 121.801 579.158C123.127 577.163 123.392 576.415 125.249 574.42L128.963 570.43C129.759 569.931 130.024 569.931 130.554 569.183C131.085 568.435 131.085 568.684 131.881 567.936C132.411 567.437 132.677 567.188 133.472 566.689C134.799 565.941 135.86 564.943 137.451 564.195C137.717 563.946 137.717 563.946 138.247 563.696C140.369 561.95 144.879 559.706 147.531 559.706C147.266 561.452 141.696 567.686 140.104 569.183L137.717 571.677C137.186 572.175 137.186 572.425 136.39 572.924C135.594 573.672 134.799 574.669 134.003 575.418C133.207 576.415 132.411 576.914 131.615 577.911C130.82 578.909 130.024 579.657 129.228 580.405L123.127 586.64C122.862 586.89 122.862 587.139 122.596 587.388L119.678 590.63C117.556 593.124 114.373 599.359 114.638 602.601C114.638 603.848 114.638 604.098 115.434 604.098C115.699 603.599 115.965 603.349 116.23 602.601L117.291 600.357C117.291 599.858 117.291 599.858 117.556 599.359C119.148 597.115 121.535 595.369 123.657 593.623L132.942 586.141C133.472 585.892 133.738 585.643 134.268 585.144L139.839 581.403C142.226 579.907 144.348 578.161 146.47 576.415C147.797 575.168 149.123 574.171 150.715 573.422C151.776 572.924 153.102 572.425 154.163 571.926C154.959 571.677 156.816 570.679 157.612 570.679C157.346 571.178 156.551 572.674 156.02 573.173C155.755 573.672 155.489 573.921 155.224 574.42C154.959 575.168 154.694 575.168 154.428 575.667L146.205 587.139C144.879 588.885 143.818 589.383 144.083 590.381C143.022 590.381 142.226 591.877 140.9 593.374L134.799 599.858C134.268 600.107 134.268 600.357 133.738 600.855L128.432 606.342C127.902 606.591 127.902 606.841 127.371 607.34C125.78 609.085 123.657 610.582 122.066 612.577C120.74 614.073 120.474 614.073 119.148 616.068L117.026 620.308C117.026 620.807 116.761 621.306 116.495 621.804C116.495 622.303 116.23 622.802 116.23 623.301C115.965 624.049 115.699 624.298 115.699 625.046C115.169 626.044 114.373 627.291 114.904 628.289C115.699 629.535 115.699 629.286 115.965 631.281L117.291 638.015C117.556 639.262 118.087 639.76 119.148 640.509C119.678 640.758 120.209 640.758 120.74 641.007C121.27 641.257 121.801 641.257 122.596 641.257C127.106 642.254 128.432 641.506 132.146 644.748C135.594 647.99 133.207 652.23 137.982 655.722C139.308 656.719 139.839 657.966 140.369 659.462C140.369 659.961 140.635 660.709 140.635 661.208C140.635 662.206 140.369 663.951 140.369 664.949L139.839 668.44C138.778 675.673 141.696 675.922 141.961 678.416C142.491 680.661 142.226 683.903 142.491 686.147C142.757 688.641 142.757 690.886 141.43 692.631C141.165 693.13 140.9 693.38 140.369 693.878C139.573 694.377 139.839 694.377 139.308 694.876L134.533 698.617C134.003 699.116 133.207 700.113 132.411 700.612C131.615 701.36 130.554 701.859 130.024 702.607C129.228 703.355 128.698 703.854 127.636 704.602C126.841 705.6 125.514 706.348 124.719 707.595C123.657 708.842 122.331 709.839 121.535 711.086C120.474 712.832 119.148 714.328 118.087 715.825L115.699 719.815C114.904 721.311 114.373 722.06 114.108 723.556C114.108 723.805 113.843 724.055 113.843 724.304C113.312 726.798 113.047 733.532 113.312 735.776C113.843 739.018 115.434 741.512 117.291 744.006C118.617 745.502 119.944 747.248 121.27 748.744L123.657 750.49C125.249 751.987 126.31 753.732 127.902 754.979C130.024 754.48 131.085 752.236 131.615 750.49L133.472 746.5C133.738 745.752 134.003 745.253 134.268 744.505C134.533 743.757 134.799 743.258 135.064 742.759L139.573 735.776L148.327 724.553C148.593 724.304 148.593 724.304 148.858 723.805C149.123 723.556 149.388 723.307 149.388 723.057L149.654 722.808H149.919C149.919 722.558 149.919 722.558 150.184 722.309L152.306 720.064C152.837 719.566 153.102 719.316 153.633 718.817C154.163 718.319 154.694 717.82 155.224 717.321L155.489 717.072C157.081 715.825 159.203 714.328 160.53 713.081C161.856 711.835 163.447 710.837 164.509 709.839L169.283 705.849C174.589 702.108 172.997 700.113 175.119 694.627C175.384 693.878 175.384 693.629 175.915 693.13C175.915 692.881 176.18 692.881 176.18 692.881L176.711 692.382C178.833 690.138 183.342 687.145 185.73 685.648L198.197 679.414C198.728 679.164 198.463 679.164 198.993 678.915C199.789 678.416 200.319 678.416 200.85 677.917L214.379 671.433C214.909 670.934 215.705 670.685 216.235 670.436C217.031 670.186 217.562 670.186 218.358 669.687C219.684 668.939 221.276 668.44 222.602 667.942C222.337 669.189 215.174 675.174 213.848 676.421C213.052 676.92 212.522 677.419 211.726 677.917L205.625 682.406L194.749 689.14C193.688 689.888 188.913 692.631 188.382 693.38L186.791 695.375C185.73 696.871 184.934 698.617 184.934 700.363C185.199 701.609 185.465 702.108 185.995 703.106C187.056 704.852 188.913 704.353 190.239 703.106L195.545 697.869C198.197 695.125 198.728 693.38 202.707 690.886L205.89 688.891C206.421 688.392 206.686 688.641 206.686 687.644C207.482 688.142 207.747 687.644 208.808 687.145C209.869 686.397 211.195 685.648 212.522 684.9C213.583 684.402 214.379 683.903 215.44 683.404C216.235 682.905 217.827 681.908 218.623 681.658C217.297 686.895 216.766 690.138 223.928 690.138C223.663 690.886 221.276 692.133 220.48 692.881C219.949 693.13 219.949 693.629 219.419 693.878C218.888 694.128 218.623 694.128 218.092 694.627L200.585 707.096C200.319 707.346 199.789 707.595 199.258 707.844C198.728 708.343 198.993 708.343 198.197 708.842L195.545 711.086H195.279V711.336C195.014 711.336 194.749 711.585 194.484 711.835C193.423 712.583 192.362 713.331 191.035 714.578L189.974 715.575C188.913 716.573 187.587 717.571 186.791 718.568L186.26 719.316C185.995 719.316 185.995 719.316 185.995 719.566L184.138 721.311C183.342 722.06 182.281 723.057 181.486 724.055L165.57 742.011C164.243 743.258 162.917 745.004 161.591 746.5C161.06 747.248 160.53 748.246 159.999 748.994C158.673 750.49 157.081 751.987 156.02 753.483C155.224 754.48 154.694 754.979 153.898 755.977L150.449 760.715C148.858 762.461 145.409 767.199 144.083 769.195C143.287 770.441 142.226 771.439 141.43 772.935C141.165 773.434 140.9 773.684 140.635 774.182L136.656 780.417C136.39 780.916 136.125 781.415 135.86 781.664L124.984 798.373C123.127 801.366 120.74 806.603 119.678 809.845L118.087 814.584C116.23 820.819 114.904 827.552 114.904 834.286C114.904 837.029 114.638 839.523 114.638 842.266L115.699 849C115.699 847.753 116.495 846.256 116.761 845.009C117.556 842.266 118.087 839.024 119.148 836.53C119.148 835.782 119.413 835.034 119.678 834.535L121.535 828.3C121.801 827.552 122.066 827.303 122.331 826.554C122.596 825.308 122.596 825.308 122.862 824.559L126.045 816.828C126.31 816.08 126.575 815.581 126.841 815.083L128.432 811.342C129.759 808.1 131.35 805.107 132.677 802.114C134.268 799.121 136.656 794.632 138.778 791.889C139.308 791.39 139.573 790.892 139.839 790.143L144.348 783.909C144.614 783.41 144.879 782.911 145.409 782.163L148.327 778.422C148.593 778.173 148.593 777.923 148.858 777.674L152.837 773.185C153.102 772.935 153.633 772.187 153.898 771.688L162.121 763.708C162.121 763.459 162.386 763.459 162.386 763.459L164.509 761.214C165.57 760.216 166.896 759.219 168.222 758.221L169.283 757.224C170.61 755.977 174.058 753.732 175.384 752.485C176.976 750.989 177.772 751.987 180.159 751.987C184.138 751.488 186.791 750.241 188.913 747.747L189.444 747.497C190.77 746.001 191.831 744.505 193.423 743.258L198.993 738.021L201.115 735.776C201.115 735.776 201.115 735.776 201.381 735.776C201.381 735.527 201.381 735.527 201.646 735.277C201.911 735.028 201.911 735.028 202.176 734.779C202.442 734.28 202.707 734.28 202.972 733.781L203.503 733.282C203.768 733.033 204.033 732.783 204.298 732.534L209.604 724.803C210.665 723.307 216.235 718.568 217.827 716.573L228.438 705.6C228.968 705.101 229.499 704.852 230.029 704.103L230.56 703.605C232.417 701.61 232.417 701.859 233.213 700.861L235.865 698.367C235.865 698.367 235.865 698.367 235.865 698.118L236.661 697.37C237.192 696.871 237.457 696.622 237.987 696.123L241.701 692.382C242.497 691.883 242.762 691.135 243.558 690.636C244.619 689.639 245.68 688.392 247.006 687.145C247.272 686.895 247.272 686.895 247.537 686.397L250.985 682.905C251.251 682.656 251.251 682.656 251.516 682.406C252.577 681.409 253.108 680.411 254.169 679.414C254.964 678.416 256.291 676.67 256.821 675.673C257.352 674.675 258.148 673.927 258.678 673.179C259.209 671.932 259.739 670.934 260.535 669.687C261.596 667.443 264.514 660.46 265.045 657.966C265.31 657.218 265.575 656.719 265.84 655.971C266.106 655.472 266.371 654.973 266.901 654.475C268.758 654.973 269.819 657.218 270.35 658.964C270.88 661.458 269.023 664.7 269.554 665.198C271.146 665.947 271.676 663.702 272.737 663.203C273.533 663.702 273.798 664.45 274.329 665.198C274.859 665.947 275.655 666.695 276.186 667.194L279.104 669.937C279.369 670.436 279.634 670.934 279.899 671.184C281.491 673.428 282.287 676.67 282.817 679.414C283.348 682.406 283.613 685.399 285.205 688.142L288.388 696.123C288.653 697.12 288.918 697.869 289.184 698.866C289.449 699.614 289.449 699.614 289.714 700.363L290.775 702.856C291.041 703.355 291.306 703.854 291.306 704.353C292.102 706.099 292.632 708.094 293.428 709.59C294.224 710.837 295.815 716.324 296.346 718.069L297.938 725.551C298.733 727.796 299.529 731.038 299.794 733.033L300.855 739.517C301.121 741.761 301.121 744.006 301.917 746.001C302.182 747.248 303.508 750.241 304.569 750.74C304.304 749.991 304.039 749.243 304.039 748.495C303.773 747.996 303.773 747.747 303.773 747.248C303.508 745.253 302.978 742.26 303.243 740.265C303.508 739.268 303.508 738.519 303.773 737.771L305.1 732.534C305.1 732.285 305.365 732.035 305.365 731.536C305.896 729.541 306.426 727.546 307.487 725.8C308.283 724.553 308.813 723.057 309.875 721.81C310.67 720.563 311.731 719.316 312.527 718.319C313.058 717.82 313.588 717.321 314.119 716.822L316.241 715.326C318.098 714.079 319.955 712.832 322.342 712.084C324.995 711.086 327.382 709.341 328.708 708.842L331.892 707.096C334.014 705.35 337.462 702.607 339.054 700.363L340.645 698.617C341.441 697.12 343.563 694.128 344.094 692.631C342.768 691.883 337.993 688.392 337.197 688.392C337.197 687.394 338.789 685.15 339.319 684.152L344.89 673.428C345.42 672.68 345.686 671.932 346.216 671.184L350.726 662.455C351.521 660.709 350.726 660.709 348.338 657.717C347.012 655.971 347.012 656.719 344.624 656.22L340.38 655.472C339.85 655.472 339.319 655.472 338.789 655.223L321.016 652.978C316.771 652.23 313.058 651.731 309.079 651.232C307.222 650.983 305.896 650.734 303.508 650.484C301.651 650.235 299.264 649.736 297.407 649.487C296.081 651.232 294.489 653.228 293.428 655.223C292.632 656.22 287.062 663.702 286.796 664.7C284.409 664.7 284.939 660.211 284.674 658.964C284.144 656.719 283.348 654.724 282.552 652.978C281.491 650.734 280.96 649.736 280.165 646.993C279.899 646.494 279.899 645.995 279.634 645.746C277.512 642.504 273.533 644.998 271.941 643.003C270.88 642.005 270.085 640.509 269.289 639.262C268.228 637.765 266.901 638.015 265.84 636.768C262.657 633.526 263.718 633.526 262.392 630.034C262.127 629.535 261.861 629.286 261.596 628.787C261.331 628.039 261.596 628.039 261.066 627.291C260.27 626.044 259.209 625.296 257.617 624.548C255.23 623.55 254.434 626.543 253.108 627.79C252.842 628.039 252.312 628.289 252.046 628.787L250.19 630.782C247.006 634.025 244.088 637.267 240.64 639.76L236.13 643.501C235.069 644 234.539 644.748 233.743 645.247L223.928 652.23C222.867 652.729 222.337 653.228 221.541 653.726L218.888 655.472C216.501 656.968 214.113 658.714 211.461 660.211L197.932 667.692C197.136 667.942 196.34 668.44 195.279 668.939L187.852 671.932C187.321 672.181 187.056 672.431 186.26 672.68C185.465 672.93 183.873 673.428 183.077 672.68C182.281 671.932 182.547 668.939 183.077 667.692L184.934 663.453C185.465 662.704 185.995 661.707 186.26 660.959C187.321 658.964 190.239 653.976 191.831 652.23L194.484 648.739C194.749 648.24 195.014 647.741 195.279 647.492C197.136 645.247 196.075 647.242 197.932 643.751C198.728 641.756 198.463 639.262 198.993 637.017C199.789 632.778 203.237 625.795 203.237 624.797C202.707 625.046 202.442 626.044 202.176 626.543C200.85 628.289 201.381 627.291 201.646 628.289C200.585 628.538 200.585 628.787 200.054 629.535L195.81 636.02C195.279 637.516 193.953 639.262 192.892 640.758C192.627 641.257 192.096 641.756 191.566 642.504L185.995 649.237C184.934 649.986 183.077 650.484 182.281 649.237C181.22 647.492 181.751 644.748 182.016 642.753C182.547 639.012 182.812 635.521 183.342 632.029L184.138 626.792C184.404 625.296 185.199 623.301 185.199 621.804C185.465 621.056 185.199 621.555 185.199 620.807C185.465 620.308 185.73 620.059 185.73 619.56C186.26 617.066 186.526 614.323 187.321 611.829L189.709 602.102C188.913 602.601 188.382 604.596 188.117 605.594C186.526 609.335 183.077 620.308 182.016 624.548L177.772 645.247C177.507 646.743 177.507 648.489 177.241 649.736C176.976 650.734 176.976 650.983 176.976 651.981C176.711 653.976 176.711 656.719 175.65 658.215L171.936 662.206C170.875 663.702 169.549 664.949 168.488 666.695L167.426 667.942C167.161 668.44 167.161 668.44 166.896 668.69C166.631 669.189 166.631 669.189 166.365 669.438C165.039 671.184 163.447 674.426 161.06 674.426C159.468 674.426 158.673 673.179 159.468 671.683C159.999 670.186 160.795 669.687 161.06 668.191C161.325 667.194 161.06 665.198 160.264 664.45C158.673 661.956 158.407 662.704 158.938 658.714C159.203 657.966 159.203 657.218 159.203 656.47L163.182 642.504C163.713 640.509 167.426 630.284 167.426 629.037L164.509 634.274C162.386 638.763 160.53 643.501 158.407 647.99C157.081 650.983 156.02 653.477 154.959 656.719L152.306 665.947C152.041 666.944 151.776 668.69 151.51 669.189C149.919 671.184 147.797 668.69 149.654 663.702C150.449 661.707 150.184 661.956 151.245 659.462C152.306 656.968 153.102 654.475 154.163 652.23L161.856 634.025C162.121 633.276 162.121 633.276 162.386 632.528C162.917 631.032 163.713 629.785 164.243 628.289L166.896 620.807C166.896 620.308 167.426 619.809 167.426 619.31C168.222 618.063 168.753 616.567 169.549 615.57L170.875 613.824C172.201 611.829 173.793 609.584 175.65 607.838L177.772 605.594C178.833 604.596 180.159 603.848 180.955 602.601C181.486 602.102 181.486 602.102 182.016 601.604C182.812 601.105 183.608 600.357 184.138 599.609C184.669 599.359 184.669 598.86 185.199 598.611C187.056 596.366 188.913 594.122 190.505 591.628C190.77 591.129 190.77 590.88 191.035 590.381C191.3 590.132 191.566 589.633 191.831 589.134L193.157 586.391C194.218 584.894 195.279 584.146 197.136 584.146C198.197 584.146 200.054 584.645 200.585 584.894C201.911 585.643 203.237 588.137 204.033 589.383C205.89 591.877 207.747 593.873 209.339 596.366L211.195 598.611C211.726 599.609 212.256 599.858 213.318 600.606L215.97 601.853C218.092 602.851 219.419 604.596 221.01 605.843C222.602 606.841 224.193 607.589 226.05 608.337L227.377 608.836C230.029 609.335 232.151 609.085 234.274 610.332C234.804 610.582 235.069 610.831 235.865 610.831C236.661 609.834 236.396 609.834 236.13 608.337C235.865 605.594 236.396 603.1 238.253 600.855C238.518 600.606 238.783 600.357 239.048 600.107L240.375 598.112C242.497 594.87 241.436 594.621 240.109 591.628C237.722 585.892 240.375 580.405 241.701 574.669C242.232 572.175 243.293 564.694 244.088 563.197C244.884 561.701 246.211 560.704 247.006 559.207C247.802 556.963 247.272 550.478 247.802 549.98C248.067 549.98 250.985 549.73 251.251 549.73C254.434 549.73 257.352 549.481 260.535 549.232H265.045C266.371 548.982 266.636 549.232 267.697 548.982L272.737 548.733C274.064 548.733 274.329 548.483 275.92 548.483C275.39 547.985 274.594 547.985 273.798 547.985L248.863 544.493C247.802 544.244 247.272 544.493 247.006 543.496C245.945 539.755 245.415 533.769 244.088 530.028C243.823 529.28 243.558 528.781 243.293 528.033C242.232 525.041 239.844 522.297 237.722 519.803C236.926 518.806 235.6 518.058 234.539 517.309C233.743 516.561 233.743 516.811 232.947 516.312L230.029 514.816C228.703 513.818 226.581 513.07 224.989 512.571C224.459 512.571 223.132 512.322 222.602 512.072C219.684 511.573 215.44 511.573 212.522 512.322L207.747 513.319C206.951 513.319 206.686 513.818 205.89 513.818C203.503 514.566 196.606 516.811 195.014 517.559L184.138 523.544C182.812 524.542 181.486 525.539 180.159 526.786L178.833 527.784C178.302 528.283 178.302 528.283 178.037 528.781C177.507 529.28 177.241 529.53 176.711 530.028C175.915 531.026 175.384 532.772 174.854 533.769L172.467 540.752C171.936 541.999 171.405 542.747 171.405 543.994C171.14 544.742 171.14 545.989 171.405 546.738C171.405 549.481 174.058 548.483 174.854 546.987L177.241 543.745C177.507 543.246 177.507 542.997 178.037 542.498C178.833 541.5 179.363 540.253 180.425 539.256C181.486 538.508 182.281 537.261 183.342 536.263C184.138 535.764 184.934 535.266 185.465 534.767C188.382 532.273 191.831 530.527 194.749 528.283C196.075 527.285 200.85 525.29 202.707 524.542L208.012 522.048C208.808 521.798 208.543 521.549 209.339 521.549C213.052 520.552 211.991 520.302 217.297 519.554C219.949 519.305 222.071 519.554 224.459 520.053C226.846 520.302 228.438 521.05 230.825 521.549C232.151 522.048 233.743 522.547 234.804 523.295C238.783 526.038 238.253 529.779 234.008 527.036L232.417 526.537C230.825 526.038 228.172 525.041 226.581 524.791C226.05 524.542 226.05 524.542 225.785 524.542C225.255 524.542 225.255 524.542 224.989 524.292C224.459 524.292 223.928 524.043 223.132 524.043C217.827 524.043 216.235 523.794 211.195 525.539C210.665 525.789 210.134 525.789 209.604 526.038L199.789 530.527C199.258 530.777 199.258 530.777 198.993 531.026L187.852 537.76C187.587 538.009 187.056 538.258 186.791 538.508C185.995 538.757 186.26 539.006 185.73 539.256L180.69 543.994C180.159 544.742 181.22 543.496 180.69 544.244C179.363 545.491 178.302 546.987 177.507 548.483L175.65 550.478C174.854 551.725 174.058 552.723 172.732 553.222C172.201 553.471 171.671 553.97 171.405 553.97C168.753 554.219 167.692 552.224 167.692 549.98C167.426 548.234 167.692 544.493 168.222 542.997L169.814 537.261C170.344 535.764 172.201 533.021 171.405 531.275C170.875 530.278 167.957 530.278 166.631 528.283C165.835 526.786 164.509 526.038 163.447 528.033C163.447 528.532 163.182 528.781 162.917 529.28H161.856C161.325 527.784 159.468 524.791 157.346 527.784C156.02 529.779 154.694 532.024 153.102 533.769C152.837 534.268 152.572 534.517 152.306 535.016C151.776 535.764 151.51 536.263 150.715 536.762C149.654 537.76 148.593 538.508 147.001 539.256C147.001 539.256 146.736 539.505 146.47 539.505C145.675 540.004 145.144 540.253 144.083 540.752C141.165 542.249 138.247 543.994 135.329 545.74C133.738 546.987 132.146 548.483 130.554 549.98C130.289 550.229 130.024 550.229 129.759 550.728L122.331 558.958C120.474 561.202 113.312 569.682 111.455 570.679C110.129 571.677 110.129 572.674 107.476 573.672C104.293 575.418 104.824 573.921 102.171 573.422Z" fill="#0072B9" fill-opacity="0.3"/>
<path fill-rule="evenodd" clip-rule="evenodd" d="M123.392 358.198C123.392 359.944 122.862 361.191 121.536 362.189C118.883 364.184 114.108 365.431 110.129 368.423C109.599 368.922 109.333 369.421 108.803 369.67C108.272 370.169 107.742 370.668 107.211 371.167C106.946 371.416 106.946 371.665 106.681 371.915C106.415 372.414 106.15 372.414 105.885 372.663L103.497 377.401C103.232 377.9 103.232 378.15 103.232 378.648L101.641 382.888C102.967 381.89 105.885 376.154 107.476 374.658C109.068 372.912 109.599 372.164 111.721 370.418C112.517 369.92 112.782 369.67 113.312 369.421C115.169 368.174 117.026 367.176 118.883 366.179C121.005 365.431 123.392 364.682 125.515 364.184C126.841 363.934 127.371 364.184 127.637 363.186L127.902 363.685C128.433 363.435 132.146 362.937 133.207 362.687C137.717 362.438 145.675 362.189 149.389 364.932C149.919 365.431 150.184 366.179 150.184 366.927C149.919 369.171 144.349 368.673 142.492 368.673H140.37C140.104 368.673 140.104 368.673 139.574 368.673C137.186 368.922 130.82 369.421 128.698 369.92C123.127 371.416 117.557 372.663 112.782 376.154C112.251 376.653 111.721 376.903 111.19 377.401C110.394 377.9 109.864 378.15 109.333 378.648L107.742 380.145C106.681 381.142 104.559 384.135 103.763 385.631C100.049 392.614 105.62 399.597 109.599 399.597C110.66 399.597 111.19 399.597 111.986 399.098C113.578 398.35 114.904 397.103 115.965 395.607L116.23 395.358L117.822 393.362C119.944 390.37 122.862 389.123 126.841 389.123C128.698 389.123 130.024 389.123 130.024 390.619L126.045 391.866C125.249 391.866 124.719 392.115 123.923 392.365C123.127 392.614 122.862 392.864 122.331 393.113C122.862 395.607 123.127 394.859 124.719 394.609C125.515 394.36 130.289 393.113 130.289 394.36C130.289 395.607 124.188 396.355 122.597 398.101C122.066 398.849 121.536 399.847 121.005 400.345C121.801 400.345 122.597 400.096 123.127 399.847C123.658 399.847 123.923 399.847 124.188 399.597C126.045 399.098 129.228 397.851 131.35 398.849C130.555 400.345 127.902 400.096 126.576 400.844C126.31 400.844 126.045 401.094 125.515 401.343L123.658 402.839C123.127 403.089 122.862 403.338 122.597 403.837C124.984 403.837 129.228 402.59 130.82 403.338C130.82 404.336 130.289 404.585 129.228 404.834L126.841 405.832C125.78 406.081 123.658 407.578 122.597 408.076L121.536 409.074C119.679 410.82 117.822 413.064 118.352 416.057C118.883 420.297 119.944 421.294 123.392 423.539C126.841 425.534 126.31 425.284 127.637 429.025C128.167 430.771 127.902 431.769 127.637 433.016L128.167 437.505C128.433 441.245 128.963 444.986 129.228 448.977L129.759 457.705C130.289 459.451 130.024 461.446 130.555 463.192C130.555 464.189 130.555 465.436 130.555 466.185L132.146 483.642C132.412 485.637 132.942 493.618 132.677 495.114C132.146 498.356 131.881 498.605 131.616 500.102C131.35 500.85 132.412 501.099 132.942 501.598L134.534 503.344C135.595 504.092 136.656 505.838 136.921 507.085C137.717 509.828 137.982 512.571 137.982 515.564C137.982 516.312 138.247 516.063 138.247 516.811C138.513 520.053 138.513 523.794 139.043 526.787C139.574 529.53 140.635 534.268 144.614 534.019C145.144 534.019 146.205 533.52 147.001 533.271C147.266 533.271 147.797 532.772 147.797 532.523L148.328 532.273C148.858 531.525 149.389 530.527 149.919 529.779C150.715 528.283 150.98 526.787 151.245 525.041C151.511 522.547 152.041 517.809 151.776 515.065L152.041 513.07C152.041 511.324 151.776 510.327 151.776 508.581L152.041 507.833C152.837 508.082 159.999 513.818 161.856 515.065C162.121 515.315 162.387 515.315 162.652 515.564C163.182 516.063 163.713 516.312 164.244 516.811L171.936 522.298C173.528 523.295 174.854 524.792 176.446 525.789C177.242 525.29 179.894 522.048 179.894 521.3C178.303 520.801 176.976 519.804 175.65 519.056L172.732 517.31C172.202 517.06 171.936 516.811 171.14 516.312L152.572 505.588C151.245 505.09 151.511 503.094 151.511 502.097C151.511 500.351 150.98 498.107 150.98 496.361C150.45 493.867 150.45 490.874 149.919 488.38C149.123 484.889 147.001 471.422 146.471 469.676L144.614 458.703C144.349 457.207 144.349 456.209 144.083 454.713L141.961 443.739C141.696 442.243 141.165 441.495 141.165 439.999C140.9 438.752 140.9 437.255 140.635 436.008C139.839 431.769 140.635 429.025 142.492 425.534C143.287 424.037 144.349 423.04 145.41 421.544C145.675 421.045 145.41 421.294 145.675 420.795V420.546C146.736 417.803 144.614 410.57 147.797 404.086C150.45 397.851 153.102 397.353 154.694 395.358C155.224 394.859 154.959 395.108 155.224 394.859L156.551 393.612C158.938 390.868 158.142 391.617 159.734 388.873C160.265 387.876 160.53 387.128 161.06 385.881C161.856 383.387 162.121 380.893 162.387 378.399C162.652 375.905 161.856 371.416 160.795 369.171C158.408 364.682 152.837 362.438 148.062 361.191C146.736 360.942 145.41 360.692 144.349 360.443C143.553 360.193 143.022 360.193 142.226 359.944C140.635 359.695 140.37 359.196 140.104 357.699C140.104 356.951 139.839 356.453 139.574 355.704C139.043 353.959 139.043 354.208 137.982 352.961C136.921 351.215 135.064 349.968 133.473 348.472L127.106 343.484C124.454 341.24 122.862 337.748 122.331 337C122.331 337.998 122.331 338.995 122.331 340.242C122.331 342.736 121.801 345.729 121.27 348.472C121.005 350.467 121.005 351.465 121.801 353.21C122.331 354.457 123.392 356.702 123.392 358.198Z" fill="#0072B9" fill-opacity="0.3"/>
<path fill-rule="evenodd" clip-rule="evenodd" d="M118.618 803.112C119.148 802.863 119.148 802.115 119.413 801.616L131.085 774.183C131.616 773.684 131.881 773.435 132.146 772.687L134.799 767.948C136.125 764.955 140.9 757.723 142.757 755.229L143.553 754.481C143.818 754.232 143.818 754.232 144.083 753.733L155.224 740.515C155.49 740.266 155.755 740.016 156.02 739.767C156.286 739.268 156.816 738.769 157.081 738.271C157.347 737.772 157.612 737.522 158.142 737.024L158.938 736.026L159.203 735.777L160.53 734.28C160.53 734.28 160.53 734.031 160.795 734.031L162.387 732.535V732.285H162.652C163.978 730.539 164.774 729.791 166.631 728.046C167.161 727.547 167.161 727.297 167.692 726.799L169.018 725.552C170.61 724.055 172.997 722.559 174.324 720.813C175.119 719.067 174.854 718.818 175.119 717.322V714.329C174.854 711.835 176.181 707.097 176.446 705.102C174.854 705.102 171.671 707.346 170.079 708.344L166.1 711.586C165.57 712.085 165.835 711.835 165.305 712.334C164.244 713.331 163.978 715.077 163.448 716.574C162.917 718.569 161.326 721.063 159.734 722.559L159.203 723.058C158.408 723.556 158.142 724.305 157.612 725.053C156.816 726.05 155.755 726.799 155.224 727.547C154.959 727.796 154.959 728.046 154.694 728.295C154.429 728.544 154.429 728.794 154.163 729.043C153.633 729.542 153.368 729.791 153.102 730.29C152.307 731.288 151.776 732.285 150.98 733.283C150.184 734.28 149.654 735.028 148.858 736.026L141.165 746.75C139.839 747.997 136.125 754.232 134.799 756.476L124.719 780.168C123.392 785.156 121.536 789.895 120.209 794.882C119.413 797.376 118.618 800.369 118.618 803.112Z" fill="#0072B9" fill-opacity="0.3"/>
<path fill-rule="evenodd" clip-rule="evenodd" d="M95.0088 557.961C95.5393 557.712 96.3351 557.462 96.8657 557.213C99.5183 555.966 103.232 552.474 103.232 555.966C103.232 558.959 102.702 561.452 102.702 564.695C102.702 566.69 102.436 567.438 102.967 569.184C102.967 569.682 102.967 569.433 102.967 570.181C103.763 570.181 105.619 567.687 106.15 566.939L110.925 559.208C111.19 558.709 111.455 558.21 111.721 557.462L115.965 550.978C117.026 549.232 117.026 549.731 118.087 547.736C119.413 545.99 119.413 544.993 119.413 542.748C119.413 537.76 119.148 533.521 119.148 528.782C118.618 528.782 118.883 529.032 118.352 529.281L112.782 533.77C112.251 534.269 112.516 534.269 111.986 534.768L110.66 535.765C110.394 536.015 110.394 536.015 110.129 536.264C108.007 538.01 103.497 542.998 102.171 545.242L96.8657 553.223C96.3351 553.971 96.3351 554.719 95.8046 555.467C95.8046 555.966 95.0088 557.462 95.0088 557.961Z" fill="#0072B9" fill-opacity="0.3"/>
<path fill-rule="evenodd" clip-rule="evenodd" d="M190.24 515.813C191.035 515.564 191.566 515.315 192.096 515.065C192.892 514.816 193.423 514.566 193.953 514.317C195.28 513.569 196.606 513.07 197.932 512.571L194.219 504.341C192.892 501.349 191.035 497.109 189.709 494.366C188.383 491.622 187.322 488.879 185.995 486.136C184.669 483.642 182.812 479.402 181.486 476.41C180.955 475.412 180.425 474.415 179.894 473.168C179.629 472.419 179.364 471.921 179.098 471.422C178.833 470.923 178.833 470.424 178.568 469.925C177.772 468.928 177.507 467.681 176.976 466.683C176.711 466.434 176.446 466.185 176.446 465.935L175.385 463.441C175.119 462.693 174.854 462.194 174.589 461.696C174.324 461.197 174.324 461.446 174.058 460.947C173.793 460.199 174.324 460.698 173.528 460.199L175.65 466.933C176.976 470.923 178.568 476.908 179.894 480.899L182.016 487.882C182.282 489.378 182.547 490.126 183.077 491.373L186.261 501.848C186.526 503.094 186.791 504.092 187.056 505.339L190.24 515.813Z" fill="#0072B9" fill-opacity="0.3"/>
<path fill-rule="evenodd" clip-rule="evenodd" d="M212.256 508.331C221.01 508.331 219.419 509.08 219.949 505.339L229.764 455.71C229.233 456.209 228.968 457.954 228.438 458.952L222.071 478.405C220.745 482.644 218.888 487.383 217.562 491.373C217.296 492.62 217.031 493.617 216.501 494.864C215.97 496.111 215.705 496.86 215.44 498.106C214.909 499.603 212.256 507.583 212.256 508.331Z" fill="#0072B9" fill-opacity="0.3"/>
<path fill-rule="evenodd" clip-rule="evenodd" d="M280.43 490.376C279.634 490.625 278.308 491.374 277.512 491.623C276.982 491.872 276.716 492.122 276.186 492.371L233.743 512.572L238.783 516.313C239.579 516.811 240.11 517.061 240.64 517.56L262.922 502.347C263.453 501.848 263.718 501.848 263.984 501.349L275.39 493.867C276.451 493.119 280.165 490.875 280.43 490.376Z" fill="#0072B9" fill-opacity="0.3"/>
<path fill-rule="evenodd" clip-rule="evenodd" d="M212.522 609.585C212.522 614.323 211.461 617.066 209.869 621.306C209.869 622.054 209.604 622.553 209.339 622.802C209.073 623.55 209.073 624.049 208.808 624.797C208.543 625.296 208.278 625.546 208.012 626.294L206.421 632.03C206.155 632.528 205.89 633.775 205.89 634.524L204.829 638.015C205.36 637.516 206.155 635.521 206.421 634.524L209.604 627.79C210.4 626.543 210.665 625.296 211.461 624.299C211.726 623.8 212.257 623.052 212.522 622.802C213.583 622.054 214.379 621.306 215.705 620.807C217.827 619.81 216.766 620.308 219.419 619.311C221.276 618.812 221.541 618.812 222.867 617.814C224.724 616.318 224.459 615.819 223.398 614.323L220.745 611.081C220.48 610.831 220.215 610.582 219.949 610.333C219.419 609.585 218.888 608.836 217.827 608.088C217.562 607.839 217.297 607.839 216.766 607.589C215.44 606.592 216.236 606.841 214.113 605.594C213.052 605.345 213.052 604.846 211.991 604.597C212.257 606.093 212.522 607.839 212.522 609.585Z" fill="#0072B9" fill-opacity="0.3"/>
<path fill-rule="evenodd" clip-rule="evenodd" d="M245.415 527.784C245.415 528.781 247.272 532.023 247.537 533.021L267.697 529.779C271.676 528.781 275.921 528.283 280.165 527.534L286.266 526.537C287.062 526.287 287.062 526.537 287.592 526.038C286.266 526.038 285.736 526.287 284.94 526.287L279.369 526.537C278.308 526.287 277.778 526.537 276.716 526.537C274.86 526.537 273.268 526.786 271.411 526.786L266.106 527.036C265.045 527.285 264.249 527.036 263.188 527.036L257.883 527.534C257.087 527.534 256.026 527.534 255.23 527.534C254.169 527.534 253.638 527.784 252.577 527.534C250.455 527.534 251.251 527.784 248.864 527.784C248.333 527.784 246.476 528.033 245.415 527.784Z" fill="#0072B9" fill-opacity="0.3"/>
<path fill-rule="evenodd" clip-rule="evenodd" d="M280.43 490.375H280.695L280.43 490.126V490.375Z" fill="#0072B9" fill-opacity="0.3"/>
<path fill-rule="evenodd" clip-rule="evenodd" d="M102.171 573.423V573.174L101.906 573.423H102.171Z" fill="#0072B9" fill-opacity="0.3"/>
</g>
</g>
<defs>
<clipPath id="clip0_223_894">
<rect width="1600" height="1171" fill="white"/>
</clipPath>
<clipPath id="clip1_223_894">
<rect width="256" height="512" fill="white" transform="translate(95 337)"/>
</clipPath>
</defs>
</svg>
