<svg width="256" height="438" viewBox="0 0 256 438" fill="none" xmlns="http://www.w3.org/2000/svg">
    <g clip-path="url(#clip0_2_512)">
    <path fill-rule="evenodd" clip-rule="evenodd" d="M7.17114 236.423C7.17114 237.67 8.49747 238.917 9.29327 239.416C11.6807 241.161 15.1291 241.161 18.0471 241.66C23.3524 242.408 20.4345 245.65 21.7608 248.394C22.2913 249.89 24.1482 249.142 24.6787 247.645C24.944 247.147 25.2093 246.648 25.4745 245.9C25.7398 245.152 26.0051 244.653 26.2703 243.905C26.2703 243.156 26.5356 242.658 26.8009 242.159C28.1272 240.164 28.3925 239.416 30.2493 237.42L33.9631 233.43C34.7589 232.931 35.0241 232.931 35.5547 232.183C36.0852 231.435 36.0852 231.684 36.881 230.936C37.4115 230.437 37.6768 230.188 38.4726 229.689C39.7989 228.941 40.86 227.944 42.4516 227.195C42.7169 226.946 42.7169 226.946 43.2474 226.697C45.3695 224.951 49.879 222.706 52.5317 222.706C52.2664 224.452 46.6958 230.687 45.1042 232.183L42.7169 234.677C42.1863 235.176 42.1863 235.425 41.3905 235.924C40.5947 236.672 39.7989 237.67 39.0031 238.418C38.2073 239.416 37.4115 239.914 36.6157 240.912C35.8199 241.909 35.0241 242.658 34.2283 243.406L28.1272 249.641C27.8619 249.89 27.8619 250.139 27.5967 250.389L24.6787 253.631C22.5566 256.125 19.3734 262.36 19.6387 265.602C19.6387 266.849 19.6387 267.098 20.4345 267.098C20.6997 266.599 20.965 266.35 21.2303 265.602L22.2913 263.357C22.2913 262.858 22.2913 262.858 22.5566 262.359C24.1482 260.115 26.5356 258.369 28.6577 256.624L37.9421 249.142C38.4726 248.892 38.7379 248.643 39.2684 248.144L44.839 244.403C47.2264 242.907 49.3485 241.161 51.4706 239.416C52.797 238.169 54.1233 237.171 55.7149 236.423C56.776 235.924 58.1023 235.425 59.1634 234.926C59.9592 234.677 61.816 233.68 62.6118 233.68C62.3466 234.178 61.5508 235.675 61.0202 236.173C60.755 236.672 60.4897 236.922 60.2244 237.42C59.9592 238.169 59.6939 238.169 59.4286 238.667L51.2054 250.139C49.879 251.885 48.818 252.384 49.0832 253.381C48.0222 253.381 47.2264 254.878 45.9 256.374L39.7989 262.858C39.2684 263.108 39.2684 263.357 38.7379 263.856L33.4325 269.342C32.902 269.592 32.902 269.841 32.3715 270.34C30.7799 272.086 28.6577 273.582 27.0661 275.577C25.7398 277.074 25.4745 277.074 24.1482 279.069L22.0261 283.308C22.0261 283.807 21.7608 284.306 21.4955 284.805C21.4955 285.303 21.2303 285.802 21.2303 286.301C20.965 287.049 20.6997 287.299 20.6997 288.047C20.1692 289.044 19.3734 290.291 19.9039 291.289C20.6997 292.536 20.6997 292.286 20.965 294.282L22.2913 301.015C22.5566 302.262 23.0871 302.761 24.1482 303.509C24.6787 303.758 25.2093 303.758 25.7398 304.008C26.2703 304.257 26.8009 304.257 27.5967 304.257C32.1062 305.255 33.4325 304.507 37.1463 307.749C40.5947 310.991 38.2073 315.23 42.9821 318.722C44.3084 319.719 44.839 320.966 45.3695 322.463C45.3695 322.962 45.6348 323.71 45.6348 324.208C45.6348 325.206 45.3695 326.952 45.3695 327.949L44.839 331.441C43.7779 338.673 46.6958 338.923 46.9611 341.416C47.4916 343.661 47.2264 346.903 47.4916 349.148C47.7569 351.642 47.7569 353.886 46.4306 355.632C46.1653 356.131 45.9 356.38 45.3695 356.879C44.5737 357.378 44.839 357.378 44.3084 357.876L39.5336 361.617C39.0031 362.116 38.2073 363.114 37.4115 363.612C36.6157 364.36 35.5547 364.859 35.0241 365.607C34.2283 366.356 33.6978 366.854 32.6367 367.603C31.8409 368.6 30.5146 369.348 29.7188 370.595C28.6577 371.842 27.3314 372.84 26.5356 374.087C25.4745 375.832 24.1482 377.329 23.0871 378.825L20.6997 382.815C19.9039 384.312 19.3734 385.06 19.1081 386.556C19.1081 386.806 18.8429 387.055 18.8429 387.304C18.3123 389.798 18.0471 396.532 18.3123 398.776C18.8429 402.019 20.4345 404.512 22.2913 407.006C23.6177 408.503 24.944 410.248 26.2703 411.745L28.6577 413.491C30.2493 414.987 31.3104 416.733 32.902 417.98C35.0241 417.481 36.0852 415.236 36.6157 413.491L38.4726 409.5C38.7379 408.752 39.0031 408.253 39.2684 407.505C39.5336 406.757 39.7989 406.258 40.0642 405.759L44.5737 398.776L53.3275 387.554C53.5928 387.304 53.5928 387.304 53.858 386.806C54.1233 386.556 54.3886 386.307 54.3886 386.058L54.6538 385.808H54.9191C54.9191 385.559 54.9191 385.559 55.1844 385.309L57.3065 383.065C57.837 382.566 58.1023 382.317 58.6328 381.818C59.1634 381.319 59.6939 380.82 60.2244 380.322L60.4897 380.072C62.0813 378.825 64.2034 377.329 65.5298 376.082C66.8561 374.835 68.4477 373.837 69.5088 372.84L74.2836 368.85C79.5889 365.109 77.9973 363.114 80.1194 357.627C80.3847 356.879 80.3847 356.629 80.9152 356.131C80.9152 355.881 81.1805 355.881 81.1805 355.881L81.711 355.382C83.8332 353.138 88.3427 350.145 90.7301 348.649L103.198 342.414C103.728 342.165 103.463 342.165 103.993 341.915C104.789 341.416 105.32 341.416 105.85 340.918L119.379 334.434C119.909 333.935 120.705 333.685 121.236 333.436C122.032 333.187 122.562 333.187 123.358 332.688C124.684 331.94 126.276 331.441 127.602 330.942C127.337 332.189 120.175 338.174 118.848 339.421C118.053 339.92 117.522 340.419 116.726 340.918L110.625 345.407L99.7491 352.14C98.6881 352.888 93.9133 355.632 93.3827 356.38L91.7911 358.375C90.7301 359.871 89.9343 361.617 89.9343 363.363C90.1995 364.61 90.4648 365.109 90.9953 366.106C92.0564 367.852 93.9133 367.353 95.2396 366.106L100.545 360.869C103.198 358.126 103.728 356.38 107.707 353.886L110.89 351.891C111.421 351.392 111.686 351.642 111.686 350.644C112.482 351.143 112.747 350.644 113.808 350.145C114.869 349.397 116.196 348.649 117.522 347.901C118.583 347.402 119.379 346.903 120.44 346.404C121.236 345.906 122.827 344.908 123.623 344.659C122.297 349.896 121.766 353.138 128.928 353.138C128.663 353.886 126.276 355.133 125.48 355.881C124.949 356.131 124.949 356.629 124.419 356.879C123.888 357.128 123.623 357.128 123.093 357.627L105.585 370.096C105.32 370.346 104.789 370.595 104.259 370.845C103.728 371.343 103.993 371.343 103.198 371.842L100.545 374.087H100.28V374.336C100.014 374.336 99.7491 374.586 99.4839 374.835C98.4228 375.583 97.3617 376.331 96.0354 377.578L94.9743 378.576C93.9133 379.573 92.5869 380.571 91.7911 381.568L91.2606 382.317C90.9954 382.317 90.9953 382.317 90.9953 382.566L89.1385 384.312C88.3427 385.06 87.2816 386.058 86.4858 387.055L70.5698 405.011C69.2435 406.258 67.9172 408.004 66.5908 409.5C66.0603 410.248 65.5298 411.246 64.9992 411.994C63.6729 413.491 62.0813 414.987 61.0202 416.483C60.2244 417.481 59.6939 417.98 58.8981 418.977L55.4496 423.716C53.858 425.461 50.4096 430.2 49.0832 432.195C48.2874 433.442 47.2264 434.439 46.4306 435.936C46.1653 436.435 45.9 436.684 45.6348 437.183L41.6558 443.417C41.3905 443.916 41.1253 444.415 40.86 444.664L29.9841 461.374C28.1272 464.366 25.7398 469.604 24.6787 472.846L23.0871 477.584C21.2303 483.819 19.9039 490.552 19.9039 497.286C19.9039 500.029 19.6387 502.523 19.6387 505.267L20.6997 512C20.6997 510.753 21.4955 509.257 21.7608 508.01C22.5566 505.266 23.0871 502.024 24.1482 499.53C24.1482 498.782 24.4135 498.034 24.6787 497.535L26.5356 491.301C26.8009 490.552 27.0661 490.303 27.3314 489.555C27.5967 488.308 27.5967 488.308 27.8619 487.56L31.0451 479.829C31.3104 479.08 31.5757 478.582 31.8409 478.083L33.4325 474.342C34.7589 471.1 36.3505 468.107 37.6768 465.115C39.2684 462.122 41.6558 457.633 43.7779 454.889C44.3084 454.391 44.5737 453.892 44.839 453.144L49.3485 446.909C49.6138 446.41 49.879 445.911 50.4096 445.163L53.3275 441.422C53.5928 441.173 53.5928 440.924 53.858 440.674L57.837 436.185C58.1023 435.936 58.6328 435.188 58.8981 434.689L67.1214 426.708C67.1214 426.459 67.3866 426.459 67.3866 426.459L69.5088 424.214C70.5698 423.217 71.8962 422.219 73.2225 421.222L74.2836 420.224C75.6099 418.977 79.0584 416.733 80.3847 415.486C81.9763 413.989 82.7721 414.987 85.1595 414.987C89.1385 414.488 91.7911 413.241 93.9133 410.747L94.4438 410.498C95.7701 409.001 96.8312 407.505 98.4228 406.258L103.993 401.021L106.116 398.776C106.116 398.776 106.116 398.776 106.381 398.776C106.381 398.527 106.381 398.527 106.646 398.278C106.911 398.028 106.911 398.028 107.177 397.779C107.442 397.28 107.707 397.28 107.972 396.781L108.503 396.283C108.768 396.033 109.033 395.784 109.299 395.534L114.604 387.803C115.665 386.307 121.236 381.568 122.827 379.573L133.438 368.6C133.969 368.101 134.499 367.852 135.03 367.104L135.56 366.605C137.417 364.61 137.417 364.859 138.213 363.862L140.865 361.368C140.865 361.368 140.865 361.368 140.865 361.118L141.661 360.37C142.192 359.871 142.457 359.622 142.988 359.123L146.701 355.382C147.497 354.884 147.762 354.135 148.558 353.637C149.619 352.639 150.68 351.392 152.007 350.145C152.272 349.896 152.272 349.896 152.537 349.397L155.986 345.906C156.251 345.656 156.251 345.656 156.516 345.407C157.577 344.409 158.108 343.412 159.169 342.414C159.965 341.416 161.291 339.671 161.821 338.673C162.352 337.676 163.148 336.927 163.678 336.179C164.209 334.932 164.739 333.935 165.535 332.688C166.596 330.443 169.514 323.46 170.045 320.966C170.31 320.218 170.575 319.719 170.841 318.971C171.106 318.473 171.371 317.974 171.902 317.475C173.758 317.974 174.82 320.218 175.35 321.964C175.881 324.458 174.024 327.7 174.554 328.199C176.146 328.947 176.676 326.702 177.737 326.204C178.533 326.702 178.799 327.451 179.329 328.199C179.86 328.947 180.655 329.695 181.186 330.194L184.104 332.937C184.369 333.436 184.634 333.935 184.9 334.184C186.491 336.429 187.287 339.671 187.818 342.414C188.348 345.407 188.613 348.399 190.205 351.143L193.388 359.123C193.653 360.121 193.919 360.869 194.184 361.867C194.449 362.615 194.449 362.615 194.715 363.363L195.776 365.857C196.041 366.356 196.306 366.854 196.306 367.353C197.102 369.099 197.632 371.094 198.428 372.59C199.224 373.837 200.816 379.324 201.346 381.07L202.938 388.551C203.734 390.796 204.529 394.038 204.795 396.033L205.856 402.517C206.121 404.762 206.121 407.006 206.917 409.001C207.182 410.248 208.508 413.241 209.569 413.74C209.304 412.992 209.039 412.244 209.039 411.495C208.774 410.997 208.774 410.747 208.774 410.248C208.508 408.253 207.978 405.261 208.243 403.265C208.508 402.268 208.508 401.52 208.774 400.772L210.1 395.534C210.1 395.285 210.365 395.036 210.365 394.537C210.896 392.542 211.426 390.547 212.487 388.801C213.283 387.554 213.814 386.057 214.875 384.811C215.671 383.564 216.732 382.317 217.527 381.319C218.058 380.82 218.589 380.322 219.119 379.823L221.241 378.326C223.098 377.079 224.955 375.832 227.342 375.084C229.995 374.087 232.382 372.341 233.709 371.842L236.892 370.096C239.014 368.351 242.463 365.607 244.054 363.363L245.646 361.617C246.441 360.121 248.564 357.128 249.094 355.632C247.768 354.884 242.993 351.392 242.197 351.392C242.197 350.395 243.789 348.15 244.319 347.152L249.89 336.429C250.421 335.68 250.686 334.932 251.216 334.184L255.726 325.455C256.522 323.71 255.726 323.71 253.338 320.717C252.012 318.971 252.012 319.719 249.625 319.221L245.38 318.473C244.85 318.473 244.319 318.473 243.789 318.223L226.016 315.979C221.772 315.23 218.058 314.732 214.079 314.233C212.222 313.983 210.896 313.734 208.508 313.485C206.652 313.235 204.264 312.737 202.407 312.487C201.081 314.233 199.489 316.228 198.428 318.223C197.632 319.221 192.062 326.702 191.797 327.7C189.409 327.7 189.94 323.211 189.674 321.964C189.144 319.719 188.348 317.724 187.552 315.979C186.491 313.734 185.961 312.737 185.165 309.993C184.9 309.494 184.9 308.996 184.634 308.746C182.512 305.504 178.533 307.998 176.942 306.003C175.881 305.005 175.085 303.509 174.289 302.262C173.228 300.766 171.902 301.015 170.841 299.768C167.657 296.526 168.718 296.526 167.392 293.035C167.127 292.536 166.862 292.286 166.596 291.788C166.331 291.039 166.596 291.039 166.066 290.291C165.27 289.044 164.209 288.296 162.617 287.548C160.23 286.55 159.434 289.543 158.108 290.79C157.842 291.039 157.312 291.289 157.047 291.788L155.19 293.783C152.007 297.025 149.089 300.267 145.64 302.761L141.131 306.502C140.07 307.001 139.539 307.749 138.743 308.247L128.928 315.23C127.867 315.729 127.337 316.228 126.541 316.727L123.888 318.473C121.501 319.969 119.114 321.715 116.461 323.211L102.932 330.693C102.137 330.942 101.341 331.441 100.28 331.94L92.8522 334.932C92.3217 335.182 92.0564 335.431 91.2606 335.68C90.4648 335.93 88.8732 336.429 88.0774 335.68C87.2816 334.932 87.5469 331.94 88.0774 330.693L89.9343 326.453C90.4648 325.705 90.9954 324.707 91.2606 323.959C92.3217 321.964 95.2396 316.976 96.8312 315.23L99.4839 311.739C99.7491 311.24 100.014 310.741 100.28 310.492C102.137 308.247 101.075 310.243 102.932 306.751C103.728 304.756 103.463 302.262 103.993 300.018C104.789 295.778 108.238 288.795 108.238 287.797C107.707 288.047 107.442 289.044 107.177 289.543C105.85 291.289 106.381 290.291 106.646 291.289C105.585 291.538 105.585 291.788 105.054 292.536L100.81 299.02C100.28 300.516 98.9533 302.262 97.8923 303.758C97.627 304.257 97.0965 304.756 96.5659 305.504L90.9953 312.238C89.9343 312.986 88.0774 313.485 87.2816 312.238C86.2205 310.492 86.7511 307.749 87.0163 305.754C87.5469 302.013 87.8121 298.521 88.3427 295.03L89.1385 289.793C89.4037 288.296 90.1995 286.301 90.1995 284.805C90.4648 284.057 90.1995 284.555 90.1995 283.807C90.4648 283.308 90.7301 283.059 90.7301 282.56C91.2606 280.066 91.5259 277.323 92.3217 274.829L94.7091 265.103C93.9133 265.602 93.3827 267.597 93.1175 268.594C91.5259 272.335 88.0774 283.308 87.0163 287.548L82.7721 308.247C82.5068 309.744 82.5068 311.49 82.2416 312.737C81.9763 313.734 81.9763 313.983 81.9763 314.981C81.711 316.976 81.711 319.719 80.65 321.216L76.9362 325.206C75.8752 326.702 74.5488 327.949 73.4878 329.695L72.4267 330.942C72.1614 331.441 72.1614 331.441 71.8962 331.69C71.6309 332.189 71.6309 332.189 71.3656 332.438C70.0393 334.184 68.4477 337.426 66.0603 337.426C64.4687 337.426 63.6729 336.179 64.4687 334.683C64.9992 333.187 65.795 332.688 66.0603 331.191C66.3256 330.194 66.0603 328.199 65.2645 327.451C63.6729 324.957 63.4076 325.705 63.9382 321.715C64.2034 320.966 64.2034 320.218 64.2034 319.47L68.1824 305.504C68.713 303.509 72.4267 293.284 72.4267 292.037L69.5088 297.274C67.3866 301.763 65.5298 306.502 63.4076 310.991C62.0813 313.983 61.0202 316.477 59.9592 319.719L57.3065 328.947C57.0412 329.945 56.776 331.69 56.5107 332.189C54.9191 334.184 52.797 331.69 54.6538 326.702C55.4496 324.707 55.1844 324.957 56.2454 322.463C57.3065 319.969 58.1023 317.475 59.1634 315.23L66.8561 297.025C67.1214 296.277 67.1214 296.277 67.3866 295.529C67.9172 294.032 68.713 292.785 69.2435 291.289L71.8962 283.807C71.8962 283.308 72.4267 282.81 72.4267 282.311C73.2225 281.064 73.753 279.567 74.5488 278.57L75.8752 276.824C77.2015 274.829 78.7931 272.585 80.65 270.839L82.7721 268.594C83.8332 267.597 85.1595 266.849 85.9553 265.602C86.4858 265.103 86.4858 265.103 87.0163 264.604C87.8121 264.105 88.6079 263.357 89.1385 262.609C89.669 262.36 89.669 261.861 90.1995 261.611C92.0564 259.367 93.9133 257.122 95.5049 254.628C95.7701 254.13 95.7701 253.88 96.0354 253.381C96.3007 253.132 96.5659 252.633 96.8312 252.134L98.1575 249.391C99.2186 247.895 100.28 247.147 102.137 247.147C103.198 247.147 105.054 247.645 105.585 247.895C106.911 248.643 108.238 251.137 109.033 252.384C110.89 254.878 112.747 256.873 114.339 259.367L116.196 261.611C116.726 262.609 117.257 262.858 118.318 263.606L120.97 264.853C123.093 265.851 124.419 267.597 126.011 268.844C127.602 269.841 129.194 270.589 131.051 271.338L132.377 271.836C135.03 272.335 137.152 272.086 139.274 273.333C139.804 273.582 140.07 273.831 140.865 273.831C141.661 272.834 141.396 272.834 141.131 271.338C140.865 268.594 141.396 266.1 143.253 263.856C143.518 263.606 143.783 263.357 144.049 263.108L145.375 261.113C147.497 257.87 146.436 257.621 145.11 254.628C142.722 248.892 145.375 243.406 146.701 237.67C147.232 235.176 148.293 227.694 149.089 226.198C149.884 224.701 151.211 223.704 152.007 222.208C152.802 219.963 152.272 213.479 152.802 212.98C153.068 212.98 155.986 212.731 156.251 212.731C159.434 212.731 162.352 212.481 165.535 212.232H170.045C171.371 211.982 171.636 212.232 172.697 211.982L177.737 211.733C179.064 211.733 179.329 211.484 180.921 211.484C180.39 210.985 179.594 210.985 178.799 210.985L153.863 207.493C152.802 207.244 152.272 207.493 152.007 206.496C150.946 202.755 150.415 196.77 149.089 193.029C148.823 192.281 148.558 191.782 148.293 191.034C147.232 188.041 144.844 185.298 142.722 182.804C141.927 181.806 140.6 181.058 139.539 180.31C138.743 179.562 138.743 179.811 137.948 179.312L135.03 177.816C133.703 176.818 131.581 176.07 129.99 175.571C129.459 175.571 128.133 175.322 127.602 175.073C124.684 174.574 120.44 174.574 117.522 175.322L112.747 176.32C111.951 176.32 111.686 176.818 110.89 176.818C108.503 177.567 101.606 179.811 100.014 180.559L89.1385 186.545C87.8121 187.542 86.4858 188.54 85.1595 189.787L83.8332 190.784C83.3026 191.283 83.3026 191.283 83.0374 191.782C82.5068 192.281 82.2416 192.53 81.711 193.029C80.9152 194.026 80.3847 195.772 79.8542 196.77L77.4668 203.753C76.9362 205 76.4057 205.748 76.4057 206.995C76.1404 207.743 76.1404 208.99 76.4057 209.738C76.4057 212.481 79.0584 211.484 79.8542 209.987L82.2416 206.745C82.5068 206.246 82.5068 205.997 83.0374 205.498C83.8332 204.501 84.3637 203.254 85.4248 202.256C86.4858 201.508 87.2816 200.261 88.3427 199.264C89.1385 198.765 89.9343 198.266 90.4648 197.767C93.3827 195.273 96.8312 193.528 99.7491 191.283C101.075 190.285 105.85 188.29 107.707 187.542L113.012 185.048C113.808 184.799 113.543 184.549 114.339 184.549C118.053 183.552 116.991 183.303 122.297 182.554C124.949 182.305 127.072 182.554 129.459 183.053C131.846 183.303 133.438 184.051 135.825 184.549C137.152 185.048 138.743 185.547 139.804 186.295C143.783 189.039 143.253 192.779 139.009 190.036L137.417 189.537C135.825 189.039 133.173 188.041 131.581 187.792C131.051 187.542 131.051 187.542 130.785 187.542C130.255 187.542 130.255 187.542 129.99 187.293C129.459 187.293 128.928 187.043 128.133 187.043C122.827 187.043 121.236 186.794 116.196 188.54C115.665 188.789 115.135 188.789 114.604 189.039L104.789 193.528C104.259 193.777 104.259 193.777 103.993 194.026L92.8522 200.76C92.5869 201.009 92.0564 201.259 91.7911 201.508C90.9953 201.757 91.2606 202.007 90.7301 202.256L85.69 206.995C85.1595 207.743 86.2206 206.496 85.69 207.244C84.3637 208.491 83.3026 209.987 82.5068 211.484L80.65 213.479C79.8542 214.726 79.0584 215.723 77.732 216.222C77.2015 216.472 76.671 216.97 76.4057 216.97C73.753 217.22 72.692 215.225 72.692 212.98C72.4267 211.234 72.692 207.493 73.2225 205.997L74.8141 200.261C75.3446 198.765 77.2015 196.021 76.4057 194.276C75.8752 193.278 72.9572 193.278 71.6309 191.283C70.8351 189.787 69.5088 189.039 68.4477 191.034C68.4477 191.532 68.1824 191.782 67.9172 192.281H66.8561C66.3256 190.784 64.4687 187.792 62.3466 190.784C61.0202 192.779 59.6939 195.024 58.1023 196.77C57.837 197.268 57.5718 197.518 57.3065 198.017C56.776 198.765 56.5107 199.264 55.7149 199.762C54.6538 200.76 53.5928 201.508 52.0012 202.256C52.0012 202.256 51.7359 202.506 51.4706 202.506C50.6748 203.004 50.1443 203.254 49.0832 203.753C46.1653 205.249 43.2474 206.995 40.3295 208.74C38.7379 209.987 37.1463 211.484 35.5547 212.98C35.2894 213.229 35.0241 213.229 34.7589 213.728L27.3314 221.958C25.4745 224.203 18.3123 232.682 16.4555 233.68C15.1291 234.677 15.1291 235.675 12.4765 236.672C9.29327 238.418 9.82381 236.922 7.17114 236.423Z" fill="#F3F7FF"/>
    <path fill-rule="evenodd" clip-rule="evenodd" d="M28.3925 21.1982C28.3925 22.944 27.8619 24.1909 26.5356 25.1885C23.8829 27.1836 19.1082 28.4306 15.1292 31.4233C14.5986 31.9221 14.3334 32.4208 13.8028 32.6702C13.2723 33.169 12.7418 33.6678 12.2112 34.1666C11.946 34.416 11.946 34.6654 11.6807 34.9148C11.4154 35.4135 11.1502 35.4135 10.8849 35.6629L8.49749 40.4014C8.23222 40.9001 8.23222 41.1495 8.23222 41.6483L6.64062 45.888C7.96696 44.8904 10.8849 39.1544 12.4765 37.6581C14.0681 35.9123 14.5986 35.1641 16.7208 33.4184C17.5166 32.9196 17.7818 32.6702 18.3124 32.4208C20.1692 31.1739 22.0261 30.1763 23.8829 29.1788C26.0051 28.4306 28.3925 27.6824 30.5146 27.1836C31.8409 26.9342 32.3715 27.1836 32.6367 26.1861L32.902 26.6849C33.4325 26.4355 37.1463 25.9367 38.2073 25.6873C42.7169 25.4379 50.6749 25.1885 54.3886 27.9318C54.9191 28.4306 55.1844 29.1788 55.1844 29.9269C54.9191 32.1715 49.3485 31.6727 47.4917 31.6727H45.3695C45.1043 31.6727 45.1043 31.6727 44.5737 31.6727C42.1863 31.9221 35.8199 32.4208 33.6978 32.9196C28.1272 34.416 22.5566 35.6629 17.7818 39.1544C17.2513 39.6532 16.7208 39.9026 16.1902 40.4014C15.3944 40.9001 14.8639 41.1495 14.3334 41.6483L12.7418 43.1447C11.6807 44.1422 9.55856 47.1349 8.76276 48.6313C5.04903 55.6142 10.6196 62.5972 14.5986 62.5972C15.6597 62.5972 16.1902 62.5972 16.986 62.0984C18.5776 61.3502 19.904 60.1033 20.965 58.6069L21.2303 58.3575L22.8219 56.3624C24.944 53.3697 27.8619 52.1227 31.8409 52.1227C33.6978 52.1227 35.0241 52.1227 35.0241 53.6191L31.0451 54.866C30.2493 54.866 29.7188 55.1154 28.923 55.3648C28.1272 55.6142 27.8619 55.8636 27.3314 56.113C27.8619 58.6069 28.1272 57.8587 29.7188 57.6093C30.5146 57.36 35.2894 56.113 35.2894 57.36C35.2894 58.6069 29.1883 59.3551 27.5967 61.1008C27.0661 61.849 26.5356 62.8466 26.0051 63.3453C26.8009 63.3453 27.5967 63.096 28.1272 62.8466C28.6577 62.8466 28.923 62.8466 29.1883 62.5972C31.0451 62.0984 34.2283 60.8514 36.3505 61.849C35.5547 63.3453 32.902 63.096 31.5757 63.8441C31.3104 63.8441 31.0451 64.0935 30.5146 64.3429L28.6577 65.8393C28.1272 66.0886 27.8619 66.338 27.5967 66.8368C29.9841 66.8368 34.2283 65.5899 35.8199 66.338C35.8199 67.3356 35.2894 67.585 34.2283 67.8344L31.8409 68.8319C30.7799 69.0813 28.6577 70.5777 27.5967 71.0765L26.5356 72.074C24.6787 73.8198 22.8219 76.0643 23.3524 79.057C23.8829 83.2966 24.944 84.2942 28.3925 86.5387C31.8409 88.5339 31.3104 88.2845 32.6367 92.0253C33.1673 93.7711 32.902 94.7686 32.6367 96.0156L33.1673 100.505C33.4325 104.245 33.9631 107.986 34.2283 111.977L34.7589 120.705C35.2894 122.451 35.0241 124.446 35.5547 126.192C35.5547 127.189 35.5547 128.436 35.5547 129.185L37.1463 146.642C37.4115 148.637 37.9421 156.618 37.6768 158.114C37.1463 161.356 36.881 161.605 36.6157 163.102C36.3505 163.85 37.4115 164.099 37.9421 164.598L39.5337 166.344C40.5947 167.092 41.6558 168.838 41.9211 170.085C42.7169 172.828 42.9821 175.571 42.9821 178.564C42.9821 179.312 43.2474 179.063 43.2474 179.811C43.5127 183.053 43.5127 186.794 44.0432 189.787C44.5737 192.53 45.6348 197.268 49.6138 197.019C50.1443 197.019 51.2054 196.52 52.0012 196.271C52.2665 196.271 52.797 195.772 52.797 195.523L53.3275 195.273C53.8581 194.525 54.3886 193.527 54.9191 192.779C55.7149 191.283 55.9802 189.787 56.2455 188.041C56.5107 185.547 57.0413 180.809 56.776 178.065L57.0413 176.07C57.0413 174.324 56.776 173.327 56.776 171.581L57.0413 170.833C57.8371 171.082 64.9993 176.818 66.8561 178.065C67.1214 178.315 67.3867 178.315 67.6519 178.564C68.1825 179.063 68.713 179.312 69.2435 179.811L76.9363 185.298C78.5279 186.295 79.8542 187.792 81.4458 188.789C82.2416 188.29 84.8942 185.048 84.8942 184.3C83.3027 183.801 81.9763 182.804 80.65 182.056L77.7321 180.31C77.2015 180.06 76.9362 179.811 76.1404 179.312L57.5718 168.588C56.2455 168.09 56.5107 166.094 56.5107 165.097C56.5107 163.351 55.9802 161.107 55.9802 159.361C55.4497 156.867 55.4497 153.874 54.9191 151.38C54.1233 147.889 52.0012 134.422 51.4707 132.676L49.6138 121.703C49.3485 120.207 49.3485 119.209 49.0833 117.713L46.9611 106.739C46.6959 105.243 46.1653 104.495 46.1653 102.999C45.9001 101.752 45.9001 100.255 45.6348 99.0083C44.839 94.7686 45.6348 92.0253 47.4917 88.5338C48.2875 87.0375 49.3485 86.0399 50.4096 84.5436C50.6749 84.0448 50.4096 84.2942 50.6749 83.7954V83.546C51.7359 80.8027 49.6138 73.5704 52.797 67.0862C55.4497 60.8514 58.1023 60.3526 59.6939 58.3575C60.2245 57.8587 59.9592 58.1081 60.2245 57.8587L61.5508 56.6118C63.9382 53.8685 63.1424 54.6167 64.734 51.8734C65.2645 50.8758 65.5298 50.1276 66.0603 48.8807C66.8561 46.3867 67.1214 43.8928 67.3867 41.3989C67.6519 38.905 66.8561 34.416 65.7951 32.1715C63.4077 27.6824 57.8371 25.4379 53.0623 24.1909C51.7359 23.9415 50.4096 23.6922 49.3485 23.4428C48.5527 23.1934 48.0222 23.1934 47.2264 22.944C45.6348 22.6946 45.3695 22.1958 45.1043 20.6995C45.1043 19.9513 44.839 19.4525 44.5737 18.7043C44.0432 16.9586 44.0432 17.208 42.9821 15.961C41.9211 14.2153 40.0642 12.9683 38.4726 11.472L32.1062 6.48417C29.4535 4.23965 27.8619 0.748173 27.3314 0C27.3314 0.997564 27.3314 1.99513 27.3314 3.24208C27.3314 5.736 26.8009 8.72869 26.2703 11.472C26.0051 13.4671 26.0051 14.4647 26.8009 16.2104C27.3314 17.4574 28.3925 19.7019 28.3925 21.1982Z" fill="#F3F7FF"/>
    <path fill-rule="evenodd" clip-rule="evenodd" d="M23.6177 466.112C24.1482 465.863 24.1482 465.114 24.4135 464.616L36.0852 437.183C36.6157 436.684 36.881 436.434 37.1463 435.686L39.7989 430.948C41.1253 427.955 45.9001 420.723 47.7569 418.229L48.5527 417.481C48.818 417.231 48.818 417.231 49.0833 416.733L60.2245 403.515C60.4897 403.265 60.755 403.016 61.0203 402.767C61.2855 402.268 61.8161 401.769 62.0813 401.27C62.3466 400.772 62.6119 400.522 63.1424 400.023L63.9382 399.026L64.2035 398.776L65.5298 397.28C65.5298 397.28 65.5298 397.031 65.7951 397.031L67.3867 395.534V395.285H67.6519C68.9783 393.539 69.7741 392.791 71.6309 391.045C72.1615 390.547 72.1615 390.297 72.692 389.798L74.0183 388.551C75.6099 387.055 77.9973 385.559 79.3237 383.813C80.1194 382.067 79.8542 381.818 80.1194 380.321V377.329C79.8542 374.835 81.1805 370.096 81.4458 368.101C79.8542 368.101 76.671 370.346 75.0794 371.343L71.1004 374.585C70.5699 375.084 70.8351 374.835 70.3046 375.334C69.2435 376.331 68.9783 378.077 68.4477 379.573C67.9172 381.568 66.3256 384.062 64.734 385.559L64.2035 386.057C63.4077 386.556 63.1424 387.304 62.6119 388.053C61.8161 389.05 60.755 389.798 60.2245 390.547C59.9592 390.796 59.9592 391.045 59.6939 391.295C59.4287 391.544 59.4287 391.793 59.1634 392.043C58.6329 392.542 58.3676 392.791 58.1023 393.29C57.3065 394.287 56.776 395.285 55.9802 396.283C55.1844 397.28 54.6539 398.028 53.8581 399.026L46.1653 409.75C44.839 410.997 41.1253 417.231 39.7989 419.476L29.7188 443.168C28.3925 448.156 26.5356 452.894 25.2093 457.882C24.4135 460.376 23.6177 463.369 23.6177 466.112Z" fill="#F3F7FF"/>
    <path fill-rule="evenodd" clip-rule="evenodd" d="M0.00891113 220.961C0.539444 220.711 1.33524 220.462 1.86578 220.212C4.51844 218.965 8.23217 215.474 8.23217 218.965C8.23217 221.958 7.70164 224.452 7.70164 227.694C7.70164 229.689 7.43637 230.437 7.96691 232.183C7.96691 232.682 7.96691 232.433 7.96691 233.181C8.76271 233.181 10.6196 230.687 11.1501 229.939L15.9249 222.208C16.1902 221.709 16.4554 221.21 16.7207 220.462L20.965 213.978C22.026 212.232 22.026 212.731 23.0871 210.736C24.4134 208.99 24.4134 207.992 24.4134 205.748C24.4134 200.76 24.1482 196.52 24.1482 191.782C23.6176 191.782 23.8829 192.031 23.3524 192.281L17.7818 196.77C17.2512 197.268 17.5165 197.268 16.986 197.767L15.6596 198.765C15.3944 199.014 15.3944 199.014 15.1291 199.264C13.007 201.009 8.49744 205.997 7.17111 208.242L1.86578 216.222C1.33524 216.97 1.33524 217.718 0.804711 218.467C0.804711 218.965 0.00891113 220.462 0.00891113 220.961Z" fill="#F3F7FF"/>
    <path fill-rule="evenodd" clip-rule="evenodd" d="M95.2396 178.813C96.0354 178.564 96.5659 178.315 97.0965 178.065C97.8923 177.816 98.4228 177.566 98.9533 177.317C100.28 176.569 101.606 176.07 102.932 175.571L99.2186 167.341C97.8923 164.349 96.0354 160.109 94.7091 157.366C93.3828 154.622 92.3217 151.879 90.9954 149.136C89.669 146.642 87.8122 142.402 86.4858 139.41C85.9553 138.412 85.4248 137.415 84.8942 136.168C84.629 135.419 84.3637 134.921 84.0984 134.422C83.8332 133.923 83.8332 133.424 83.5679 132.925C82.7721 131.928 82.5068 130.681 81.9763 129.683C81.711 129.434 81.4458 129.185 81.4458 128.935L80.3847 126.441C80.1194 125.693 79.8542 125.194 79.5889 124.696C79.3236 124.197 79.3236 124.446 79.0584 123.947C78.7931 123.199 79.3236 123.698 78.5278 123.199L80.65 129.933C81.9763 133.923 83.5679 139.908 84.8942 143.899L87.0164 150.882C87.2816 152.378 87.5469 153.126 88.0774 154.373L91.2606 164.848C91.5259 166.094 91.7912 167.092 92.0564 168.339L95.2396 178.813Z" fill="#F3F7FF"/>
    <path fill-rule="evenodd" clip-rule="evenodd" d="M117.257 171.332C126.011 171.332 124.419 172.08 124.949 168.339L134.764 118.71C134.234 119.209 133.969 120.955 133.438 121.952L127.072 141.405C125.745 145.644 123.888 150.383 122.562 154.373C122.297 155.62 122.032 156.618 121.501 157.865C120.97 159.112 120.705 159.86 120.44 161.107C119.909 162.603 117.257 170.584 117.257 171.332Z" fill="#F3F7FF"/>
    <path fill-rule="evenodd" clip-rule="evenodd" d="M185.43 153.376C184.634 153.625 183.308 154.373 182.512 154.623C181.982 154.872 181.716 155.121 181.186 155.371L138.743 175.571L143.783 179.312C144.579 179.811 145.11 180.06 145.64 180.559L167.923 165.346C168.453 164.848 168.718 164.848 168.984 164.349L180.39 156.867C181.451 156.119 185.165 153.874 185.43 153.376Z" fill="#F3F7FF"/>
    <path fill-rule="evenodd" clip-rule="evenodd" d="M117.522 272.585C117.522 277.323 116.461 280.066 114.869 284.306C114.869 285.054 114.604 285.553 114.339 285.802C114.073 286.55 114.073 287.049 113.808 287.797C113.543 288.296 113.278 288.546 113.012 289.294L111.421 295.03C111.156 295.528 110.89 296.775 110.89 297.524L109.829 301.015C110.36 300.516 111.156 298.521 111.421 297.524L114.604 290.79C115.4 289.543 115.665 288.296 116.461 287.299C116.726 286.8 117.257 286.052 117.522 285.802C118.583 285.054 119.379 284.306 120.705 283.807C122.827 282.81 121.766 283.308 124.419 282.311C126.276 281.812 126.541 281.812 127.867 280.814C129.724 279.318 129.459 278.819 128.398 277.323L125.745 274.081C125.48 273.831 125.215 273.582 124.949 273.333C124.419 272.585 123.888 271.836 122.827 271.088C122.562 270.839 122.297 270.839 121.766 270.589C120.44 269.592 121.236 269.841 119.114 268.594C118.052 268.345 118.052 267.846 116.991 267.597C117.257 269.093 117.522 270.839 117.522 272.585Z" fill="#F3F7FF"/>
    <path fill-rule="evenodd" clip-rule="evenodd" d="M150.415 190.784C150.415 191.782 152.272 195.024 152.537 196.021L172.697 192.779C176.676 191.782 180.921 191.283 185.165 190.535L191.266 189.537C192.062 189.288 192.062 189.537 192.592 189.038C191.266 189.038 190.736 189.288 189.94 189.288L184.369 189.537C183.308 189.288 182.778 189.537 181.716 189.537C179.86 189.537 178.268 189.787 176.411 189.787L171.106 190.036C170.045 190.285 169.249 190.036 168.188 190.036L162.883 190.535C162.087 190.535 161.026 190.535 160.23 190.535C159.169 190.535 158.638 190.784 157.577 190.535C155.455 190.535 156.251 190.784 153.864 190.784C153.333 190.784 151.476 191.034 150.415 190.784Z" fill="#F3F7FF"/>
    <path fill-rule="evenodd" clip-rule="evenodd" d="M185.43 153.376H185.695L185.43 153.126V153.376Z" fill="#F3F7FF"/>
    <path fill-rule="evenodd" clip-rule="evenodd" d="M7.17115 236.423V236.173L6.90588 236.423H7.17115Z" fill="#F3F7FF"/>
    </g>
    <defs>
    <clipPath id="clip0_2_512">
    <rect width="256" height="512" fill="white"/>
    </clipPath>
    </defs>
    </svg>
    